# xmcd
#
# Track frame offsets:
#	150
#	20524
#	36204
#	57109
#	76430
#	95035
#	109522
#	125832
#	142046
#	160023
#	179130
#	195379
#	213447
#	226390
#	240613
#	255666
#	272774
#	288016
#	306515
#	323675
#
# Disc length: 4499 seconds
#
# Revision: 1
# Processed by: cddbd v1.5.2PL0 Copyright (c) Steve Scherf et al.
# Submitted via: audiograbber 1.83.01
#
DISCID=21119114
DTITLE=Zeca Pagodinho e Alcione - Especial
DYEAR=1900
DGENRE=
TTITLE0=quem é ela - zeca pagodinho
TTITLE1=meu ébano - alcione
TTITLE2=deixa a vida me levar - zeca pagodinho
TTITLE3=o samba vai balançar - alcione
TTITLE4=ninguém merece - zeca pagodinho
TTITLE5=sentimal demais - alcione
TTITLE6=caviar - zeca pagodinho
TTITLE7=solfadorelami - alcione
TTITLE8=dona esponja - zeca pagodinho
TTITLE9=não da mais pra segurar - alcione
TTITLE10=calanguei - zeca pagodinho
TTITLE11=corpo fechado - alcione
TTITLE12=a vera - zeca pagodinho
TTITLE13=é o maior - alcione
TTITLE14=letreiro - zeca pagodinho
TTITLE15=vendaval da vida - alcione
TTITLE16=cavaco e sapato - zeca pagodinho
TTITLE17=vida boa - alcione
TTITLE18=pra são jorge - zeca pagodinho
TTITLE19=forró do xenhenhem - alcione
EXTD=
EXTT0=
EXTT1=
EXTT2=
EXTT3=
EXTT4=
EXTT5=
EXTT6=
EXTT7=
EXTT8=
EXTT9=
EXTT10=
EXTT11=
EXTT12=
EXTT13=
EXTT14=
EXTT15=
EXTT16=
EXTT17=
EXTT18=
EXTT19=
PLAYORDER=
